# xmcd
#
# Track frame offsets:
#	150
#	26163
#	51197
#	74924
#	100969
#	133472
#	159501
#	191294
#	215862
#
# Disc length: 3200 seconds
#
# Revision: 0
# Processed by: cddbd v1.5.2PL0 Copyright (c) Steve Scherf et al.
# Submitted via: EasyCDDAExtractor 16.0.9.1
#
DISCID=910c7e09
DTITLE=Various Artist - Italian Renaissance
DYEAR=2002
DGENRE=Euro-House
TTITLE0=U-Traxx - Heroes (Club Mix)
TTITLE1=Lisa Gomez - Sister Golden Hair (Factory Team Remix)
TTITLE2=The Corporation - Return To Innocence Medley Kyrie (Ambient Mix)
TTITLE3=Paul Ice - Love Resurrection (Dance Edit)
TTITLE4=Texture - Take A Chance On Me (Factory Team Edit)
TTITLE5=Muzik Masters - Johnny Come Home (Extended Euro Mix)
TTITLE6=L. Dedalo - Easy Lady (Dance Mix)
TTITLE7=Paul Ice - Pistol In My Pocket (Factory Club Edit)
TTITLE8=Live2Love - La Cosa Más Bella (Extended Version)
EXTD=
EXTT0=
EXTT1=
EXTT2=
EXTT3=
EXTT4=
EXTT5=
EXTT6=
EXTT7=
EXTT8=
PLAYORDER=
